<svg version="1.1" xmlns="http://www.w3.org/2000/svg" xmlns:xlink="http://www.w3.org/1999/xlink" x="0px" y="0px" viewBox="0 0 368.5 47.9" style="enable-background:new 0 0 368.5 47.9;" xml:space="preserve" > <g> <g> <path d="M105.7,46.7L94,22.9l-2.2-6.4v25.6l0.6,4.5h-5.8V12.4L85,6.8h6.6l14.9,30.4l14.2-30.4h4.3v35.4l0.6,4.5h-6.3V17.4l-1,3 L105.7,46.7z"></path> <path d="M174.7,26.4c0,11.8-6.9,21.1-17.6,21.1c-11.5,0-17.6-9.2-17.6-20.4c0-11.7,6.9-21,17.6-21 C169.2,6.1,174.7,14.8,174.7,26.4z M157.1,44c7.4,0,11.5-8.2,11.5-17.2c0-9-4.1-17.2-11.5-17.2c-7.4,0-11.5,8.2-11.5,17.2 C145.6,35.8,149.7,44,157.1,44z"></path> <path d="M226.6,37.8c0,0,5.4,5.7,11.6,5.7c3.6,0,5.9-2.7,5.9-6.9c0-8-18-8.3-18-19c0-6.2,5-11.4,12.1-11.4c4.9,0,9.3,1.7,11.1,2.8 l-1.6,5.3c-3.3-3-6.3-4.5-9.7-4.4c-3,0.1-6,2.5-6,6.1c0,8.7,17.6,8,17.6,19.9c0,6.8-4.8,11.8-12.5,11.8c-7.4,0-12.8-4.5-12.8-4.5 C224.4,43,226.6,37.8,226.6,37.8z"></path> <path d="M265.7,12.4l-1.6-5.6h22.5l1.3,4.1h-16.6v14.2h14.7l-1.2,4.1h-13.5v13.3h17.3l-1.6,4.1h-21.4V12.4z"></path> <path d="M323.6,46.7l-9.4-17.5c-0.7,0.1-1.6,0.1-5.3,0.1v12.9l0.6,4.5h-6.3V12.4l-1.6-5.6h12.5c6.9,0,13.5,3,13.5,11.2 c0,4.7-3.2,7.7-8.2,9.9l10.7,18.8H323.6z M313,25.7c4.6,0,8.7-3.1,8.7-7.7c0-5-4.1-7.5-8.7-7.5h-4.1v15.2H313z"></path> <path d="M355.8,42.2l0.6,4.5h-6.3V29.1l-9.7-18l-4.1-4.3h8.1l8.1,15l1,3.2l0.9-2.5l9-15.7h5.1l-12.7,22.3V42.2z"></path> <path d="M188.2,37.8c0,0,5.4,5.7,11.6,5.7c3.6,0,5.9-2.7,5.9-6.9c0-8-18-8.3-18-19c0-6.2,5-11.4,12.1-11.4c4.9,0,9.3,1.7,11.1,2.8 l-1.6,5.3c-3.3-3-6.3-4.5-9.7-4.4c-3,0.1-6,2.5-6,6.1c0,8.7,17.6,8,17.6,19.9c0,6.8-4.8,11.8-12.5,11.8c-7.4,0-12.8-4.5-12.8-4.5 C186,43,188.2,37.8,188.2,37.8z"></path> </g> </g> <polygon points="56.8,42.9 45.9,29.6 45.8,23.9 53.8,32.2 55.6,30.8 45.6,19.3 44.4,17.8 43.3,19.3 39.5,23.6 29.9,11.8 29.8,6.1 37.8,14.5 39.6,13 29.6,1.5 28.4,0 27.2,1.5 17.2,13 19,14.5 27,6.1 26.9,11.8 17.3,23.6 13.5,19.3 12.4,17.8 11.2,19.3 1.2,30.8 2.9,32.3 10.9,23.9 10.9,29.6 0,42.9 1.7,44.3 10.8,34.8 10.6,47.9 14.1,47.9 13.9,34.8 23,44.3 24.7,42.9 13.8,29.6 13.8,23.9 21.8,32.2 23.5,30.8 18.8,25.4 26.8,17 26.6,30.1 30.2,30.1 30,17 37.9,25.4 33.2,30.8 35,32.3 43,23.9 42.9,29.6 32.1,42.9 33.8,44.3 42.9,34.8 42.7,47.9 46.2,47.9 46,34.8 55,44.3 "></polygon> </svg>